<svg width="585" height="90" viewBox="0 0 585 90" fill="none" xmlns="http://www.w3.org/2000/svg">
<path d="M31.4195 15.3409C22.1384 15.3409 17.4979 18.4091 17.4979 24.5455C17.4979 27.2727 18.6474 29.3608 20.9464 30.8097C23.2453 32.2585 28.6096 34.3466 37.0393 37.0739C45.5541 39.8011 51.5144 42.9119 54.9203 46.4062C58.3262 49.8153 60.0292 55.0994 60.0292 62.2585C60.0292 71.3778 57.2619 78.2813 51.7273 82.9688C46.1927 87.6563 38.9551 90 30.0146 90C23.3731 90 15.2414 88.9773 5.61975 86.9318L1.02177 86.0369L2.80988 72.358C14.2197 73.892 22.9473 74.6591 28.9928 74.6591C38.0185 74.6591 42.5313 70.9091 42.5313 63.4091C42.5313 60.6818 41.467 58.5511 39.3383 57.017C37.2947 55.483 33.1651 53.821 26.9493 52.0312C17.0721 49.2187 10.09 45.8949 6.00292 42.0597C2.00097 38.1392 0 32.7273 0 25.8239C0 17.1307 2.63958 10.6534 7.91874 6.39204C13.1979 2.13068 20.4355 0 29.6314 0C35.9324 0 43.9362 0.85227 53.6431 2.55681L58.2411 3.4517L56.8361 17.3864C44.8303 16.0227 36.3581 15.3409 31.4195 15.3409Z" fill="black"/>
<path d="M124.138 88.4659V52.4148H91.8249V88.4659H74.1993V1.53409H91.8249V37.0739H124.138V1.53409H141.764V88.4659H124.138Z" fill="black"/>
<path d="M237.468 88.4659V1.53409H267.228L288.174 73.125H289.451V1.53409H307.077V88.4659H278.084L256.371 16.875H255.094V88.4659H237.468Z" fill="black"/>
<path d="M362.171 57.2727V41.9318H387.46V88.4659C373.658 88.4659 365.406 88.4659 357.828 88.4659C344.29 88.4659 334.966 86.3778 329.857 79.1335C324.833 71.8892 322.322 60.3835 322.322 44.6165C322.322 28.8494 324.961 17.4716 330.24 10.483C335.519 3.49431 344.503 0 357.19 0C365.108 0 373.666 0.894886 382.862 2.68466L387.46 3.57954L386.949 17.2585C376.731 16.1506 368.344 15.5966 361.788 15.5966C355.316 15.5966 350.761 16.3636 348.121 17.8977C345.482 19.4318 343.523 22.2869 342.246 26.4631C341.054 30.554 340.458 37.6278 340.458 47.6847C340.458 57.6562 341.693 64.6449 344.162 68.6506C346.631 72.6562 351.74 74.6591 359.489 74.6591L370.089 74.1477V57.2727H362.171Z" fill="black"/>
<path d="M454.044 88.4659V52.4148H421.731V88.4659H404.105V1.53409H421.731V37.0739H454.044V1.53409H471.67V88.4659H454.044Z" fill="black"/>
<path d="M567.374 88.4659V1.53409H585V88.4659H567.374Z" fill="black"/>
<path d="M172.897 1.53401L153.356 88.4658H170.981L186.563 16.1079H192.694L208.276 88.4658H225.902L206.36 1.53401H172.897Z" fill="black"/>
<path d="M502.423 1.53401L482.882 88.4658H500.507L516.089 16.1079H522.22L537.802 88.4658H555.427L535.886 1.53401H502.423Z" fill="black"/>
</svg>
